<mxfile host="app.diagrams.net" modified="2021-02-02T02:07:56.297Z" agent="5.0 (Macintosh; Intel Mac OS X 11_0_1) AppleWebKit/537.36 (KHTML, like Gecko) Chrome/88.0.4324.96 Safari/537.36" etag="6PgBBv0skU7gAJEUNScM" version="14.2.7" type="github">
  <diagram name="Page-1" id="42789a77-a242-8287-6e28-9cd8cfd52e62">
    <mxGraphModel dx="946" dy="1512" grid="1" gridSize="10" guides="1" tooltips="1" connect="1" arrows="1" fold="1" page="1" pageScale="1" pageWidth="1100" pageHeight="850" background="#ffffff" math="0" shadow="0">
      <root>
        <mxCell id="0" />
        <mxCell id="1" parent="0" />
        <mxCell id="BGu-DRvQxac8sKk0P6TH-4" value="" style="rounded=0;orthogonalLoop=1;jettySize=auto;html=1;" edge="1" parent="1" source="BGu-DRvQxac8sKk0P6TH-1" target="BGu-DRvQxac8sKk0P6TH-3">
          <mxGeometry relative="1" as="geometry" />
        </mxCell>
        <mxCell id="BGu-DRvQxac8sKk0P6TH-39" value="" style="edgeStyle=none;rounded=0;orthogonalLoop=1;jettySize=auto;html=1;" edge="1" parent="1" source="BGu-DRvQxac8sKk0P6TH-1" target="BGu-DRvQxac8sKk0P6TH-38">
          <mxGeometry relative="1" as="geometry" />
        </mxCell>
        <mxCell id="BGu-DRvQxac8sKk0P6TH-1" value="Data Types" style="ellipse;whiteSpace=wrap;html=1;" vertex="1" parent="1">
          <mxGeometry y="500" width="120" height="80" as="geometry" />
        </mxCell>
        <mxCell id="BGu-DRvQxac8sKk0P6TH-6" value="" style="edgeStyle=none;rounded=0;orthogonalLoop=1;jettySize=auto;html=1;" edge="1" parent="1" source="BGu-DRvQxac8sKk0P6TH-3" target="BGu-DRvQxac8sKk0P6TH-5">
          <mxGeometry relative="1" as="geometry" />
        </mxCell>
        <mxCell id="BGu-DRvQxac8sKk0P6TH-8" value="" style="edgeStyle=none;rounded=0;orthogonalLoop=1;jettySize=auto;html=1;" edge="1" parent="1" source="BGu-DRvQxac8sKk0P6TH-3" target="BGu-DRvQxac8sKk0P6TH-7">
          <mxGeometry relative="1" as="geometry" />
        </mxCell>
        <mxCell id="BGu-DRvQxac8sKk0P6TH-15" style="edgeStyle=none;rounded=0;orthogonalLoop=1;jettySize=auto;html=1;entryX=0.5;entryY=1;entryDx=0;entryDy=0;dashed=1;" edge="1" parent="1" source="BGu-DRvQxac8sKk0P6TH-3" target="BGu-DRvQxac8sKk0P6TH-11">
          <mxGeometry relative="1" as="geometry" />
        </mxCell>
        <mxCell id="BGu-DRvQxac8sKk0P6TH-23" value="" style="edgeStyle=none;rounded=0;orthogonalLoop=1;jettySize=auto;html=1;" edge="1" parent="1" source="BGu-DRvQxac8sKk0P6TH-3" target="BGu-DRvQxac8sKk0P6TH-22">
          <mxGeometry relative="1" as="geometry" />
        </mxCell>
        <mxCell id="BGu-DRvQxac8sKk0P6TH-25" value="" style="rounded=0;orthogonalLoop=1;jettySize=auto;html=1;" edge="1" parent="1" source="BGu-DRvQxac8sKk0P6TH-3" target="BGu-DRvQxac8sKk0P6TH-24">
          <mxGeometry relative="1" as="geometry" />
        </mxCell>
        <mxCell id="BGu-DRvQxac8sKk0P6TH-26" value="key space related commands" style="edgeLabel;html=1;align=center;verticalAlign=middle;resizable=0;points=[];" vertex="1" connectable="0" parent="BGu-DRvQxac8sKk0P6TH-25">
          <mxGeometry x="0.0973" y="1" relative="1" as="geometry">
            <mxPoint x="2.6599999999999966" y="10" as="offset" />
          </mxGeometry>
        </mxCell>
        <mxCell id="BGu-DRvQxac8sKk0P6TH-29" value="" style="edgeStyle=none;rounded=0;orthogonalLoop=1;jettySize=auto;html=1;" edge="1" parent="1" source="BGu-DRvQxac8sKk0P6TH-3" target="BGu-DRvQxac8sKk0P6TH-28">
          <mxGeometry relative="1" as="geometry">
            <Array as="points">
              <mxPoint x="291" y="459" />
            </Array>
          </mxGeometry>
        </mxCell>
        <mxCell id="BGu-DRvQxac8sKk0P6TH-3" value="Key&lt;br&gt;binary safe" style="ellipse;whiteSpace=wrap;html=1;" vertex="1" parent="1">
          <mxGeometry x="230" y="130" width="120" height="80" as="geometry" />
        </mxCell>
        <mxCell id="BGu-DRvQxac8sKk0P6TH-10" style="edgeStyle=none;rounded=0;orthogonalLoop=1;jettySize=auto;html=1;entryX=0;entryY=0.5;entryDx=0;entryDy=0;" edge="1" parent="1" source="BGu-DRvQxac8sKk0P6TH-5" target="BGu-DRvQxac8sKk0P6TH-9">
          <mxGeometry relative="1" as="geometry" />
        </mxCell>
        <mxCell id="BGu-DRvQxac8sKk0P6TH-5" value="SET&lt;br&gt;SET mykey someval" style="ellipse;whiteSpace=wrap;html=1;" vertex="1" parent="1">
          <mxGeometry x="430" y="-60" width="120" height="80" as="geometry" />
        </mxCell>
        <mxCell id="BGu-DRvQxac8sKk0P6TH-7" value="GET&lt;br&gt;GET mykey" style="ellipse;whiteSpace=wrap;html=1;" vertex="1" parent="1">
          <mxGeometry x="440" y="60" width="120" height="80" as="geometry" />
        </mxCell>
        <mxCell id="BGu-DRvQxac8sKk0P6TH-9" value="SET x x nx&lt;br&gt;SET x x xx" style="ellipse;whiteSpace=wrap;html=1;" vertex="1" parent="1">
          <mxGeometry x="760" y="30" width="120" height="80" as="geometry" />
        </mxCell>
        <mxCell id="BGu-DRvQxac8sKk0P6TH-14" value="" style="edgeStyle=none;rounded=0;orthogonalLoop=1;jettySize=auto;html=1;" edge="1" parent="1" source="BGu-DRvQxac8sKk0P6TH-11" target="BGu-DRvQxac8sKk0P6TH-13">
          <mxGeometry relative="1" as="geometry" />
        </mxCell>
        <mxCell id="BGu-DRvQxac8sKk0P6TH-20" value="" style="edgeStyle=none;rounded=0;orthogonalLoop=1;jettySize=auto;html=1;" edge="1" parent="1" source="BGu-DRvQxac8sKk0P6TH-11" target="BGu-DRvQxac8sKk0P6TH-19">
          <mxGeometry relative="1" as="geometry" />
        </mxCell>
        <mxCell id="BGu-DRvQxac8sKk0P6TH-11" value="String" style="ellipse;whiteSpace=wrap;html=1;" vertex="1" parent="1">
          <mxGeometry x="230" y="-180" width="120" height="80" as="geometry" />
        </mxCell>
        <mxCell id="BGu-DRvQxac8sKk0P6TH-17" value="" style="edgeStyle=none;rounded=0;orthogonalLoop=1;jettySize=auto;html=1;" edge="1" parent="1" source="BGu-DRvQxac8sKk0P6TH-13" target="BGu-DRvQxac8sKk0P6TH-16">
          <mxGeometry relative="1" as="geometry" />
        </mxCell>
        <mxCell id="BGu-DRvQxac8sKk0P6TH-13" value="SET x 10&lt;br&gt;INCR x&lt;br&gt;INCRBY x 5" style="ellipse;whiteSpace=wrap;html=1;" vertex="1" parent="1">
          <mxGeometry x="430" y="-180" width="120" height="80" as="geometry" />
        </mxCell>
        <mxCell id="BGu-DRvQxac8sKk0P6TH-16" value="INCR is aotmic" style="ellipse;whiteSpace=wrap;html=1;" vertex="1" parent="1">
          <mxGeometry x="630" y="-180" width="120" height="80" as="geometry" />
        </mxCell>
        <mxCell id="BGu-DRvQxac8sKk0P6TH-19" value="GETSET" style="ellipse;whiteSpace=wrap;html=1;" vertex="1" parent="1">
          <mxGeometry x="430" y="-310" width="120" height="80" as="geometry" />
        </mxCell>
        <mxCell id="BGu-DRvQxac8sKk0P6TH-22" value="MSET&lt;br&gt;MGET" style="ellipse;whiteSpace=wrap;html=1;" vertex="1" parent="1">
          <mxGeometry x="440" y="160" width="120" height="80" as="geometry" />
        </mxCell>
        <mxCell id="BGu-DRvQxac8sKk0P6TH-24" value="EXISTS&lt;br&gt;DEL&lt;br&gt;TYPE" style="ellipse;whiteSpace=wrap;html=1;" vertex="1" parent="1">
          <mxGeometry x="450" y="270" width="120" height="80" as="geometry" />
        </mxCell>
        <mxCell id="BGu-DRvQxac8sKk0P6TH-31" value="" style="edgeStyle=none;rounded=0;orthogonalLoop=1;jettySize=auto;html=1;" edge="1" parent="1" source="BGu-DRvQxac8sKk0P6TH-28" target="BGu-DRvQxac8sKk0P6TH-30">
          <mxGeometry relative="1" as="geometry" />
        </mxCell>
        <mxCell id="BGu-DRvQxac8sKk0P6TH-33" value="" style="edgeStyle=none;rounded=0;orthogonalLoop=1;jettySize=auto;html=1;" edge="1" parent="1" source="BGu-DRvQxac8sKk0P6TH-28" target="BGu-DRvQxac8sKk0P6TH-32">
          <mxGeometry relative="1" as="geometry" />
        </mxCell>
        <mxCell id="BGu-DRvQxac8sKk0P6TH-36" value="" style="edgeStyle=none;rounded=0;orthogonalLoop=1;jettySize=auto;html=1;" edge="1" parent="1" source="BGu-DRvQxac8sKk0P6TH-28" target="BGu-DRvQxac8sKk0P6TH-35">
          <mxGeometry relative="1" as="geometry" />
        </mxCell>
        <mxCell id="BGu-DRvQxac8sKk0P6TH-28" value="Expiration" style="ellipse;whiteSpace=wrap;html=1;fillColor=#d5e8d4;strokeColor=#82b366;" vertex="1" parent="1">
          <mxGeometry x="450" y="420" width="120" height="80" as="geometry" />
        </mxCell>
        <mxCell id="BGu-DRvQxac8sKk0P6TH-30" value="EXPIRE key 10&lt;br&gt;(or refresh)" style="ellipse;whiteSpace=wrap;html=1;" vertex="1" parent="1">
          <mxGeometry x="650" y="340" width="120" height="80" as="geometry" />
        </mxCell>
        <mxCell id="BGu-DRvQxac8sKk0P6TH-32" value="SET key val EX 10" style="ellipse;whiteSpace=wrap;html=1;" vertex="1" parent="1">
          <mxGeometry x="650" y="440" width="120" height="80" as="geometry" />
        </mxCell>
        <mxCell id="BGu-DRvQxac8sKk0P6TH-35" value="TTL key" style="ellipse;whiteSpace=wrap;html=1;" vertex="1" parent="1">
          <mxGeometry x="650" y="560" width="120" height="80" as="geometry" />
        </mxCell>
        <mxCell id="BGu-DRvQxac8sKk0P6TH-41" value="" style="edgeStyle=none;rounded=0;orthogonalLoop=1;jettySize=auto;html=1;" edge="1" parent="1" source="BGu-DRvQxac8sKk0P6TH-38" target="BGu-DRvQxac8sKk0P6TH-40">
          <mxGeometry relative="1" as="geometry" />
        </mxCell>
        <mxCell id="BGu-DRvQxac8sKk0P6TH-43" value="" style="edgeStyle=none;rounded=0;orthogonalLoop=1;jettySize=auto;html=1;" edge="1" parent="1" source="BGu-DRvQxac8sKk0P6TH-38" target="BGu-DRvQxac8sKk0P6TH-42">
          <mxGeometry relative="1" as="geometry" />
        </mxCell>
        <mxCell id="BGu-DRvQxac8sKk0P6TH-46" value="" style="edgeStyle=none;rounded=0;orthogonalLoop=1;jettySize=auto;html=1;" edge="1" parent="1" source="BGu-DRvQxac8sKk0P6TH-38" target="BGu-DRvQxac8sKk0P6TH-45">
          <mxGeometry relative="1" as="geometry" />
        </mxCell>
        <mxCell id="BGu-DRvQxac8sKk0P6TH-48" value="" style="edgeStyle=none;rounded=0;orthogonalLoop=1;jettySize=auto;html=1;" edge="1" parent="1" source="BGu-DRvQxac8sKk0P6TH-38" target="BGu-DRvQxac8sKk0P6TH-47">
          <mxGeometry relative="1" as="geometry" />
        </mxCell>
        <mxCell id="BGu-DRvQxac8sKk0P6TH-52" value="" style="edgeStyle=none;rounded=0;orthogonalLoop=1;jettySize=auto;html=1;" edge="1" parent="1" source="BGu-DRvQxac8sKk0P6TH-38" target="BGu-DRvQxac8sKk0P6TH-51">
          <mxGeometry relative="1" as="geometry" />
        </mxCell>
        <mxCell id="BGu-DRvQxac8sKk0P6TH-57" value="" style="edgeStyle=none;rounded=0;orthogonalLoop=1;jettySize=auto;html=1;" edge="1" parent="1" source="BGu-DRvQxac8sKk0P6TH-38" target="BGu-DRvQxac8sKk0P6TH-56">
          <mxGeometry relative="1" as="geometry">
            <Array as="points">
              <mxPoint x="400" y="1160" />
            </Array>
          </mxGeometry>
        </mxCell>
        <mxCell id="BGu-DRvQxac8sKk0P6TH-38" value="Lists&lt;br&gt;(linked lists)" style="ellipse;whiteSpace=wrap;html=1;" vertex="1" parent="1">
          <mxGeometry x="230" y="710" width="120" height="80" as="geometry" />
        </mxCell>
        <mxCell id="BGu-DRvQxac8sKk0P6TH-40" value="RPUSH&lt;br&gt;LPUSH&lt;br&gt;RPOP&lt;br&gt;LPOP" style="ellipse;whiteSpace=wrap;html=1;" vertex="1" parent="1">
          <mxGeometry x="440" y="630" width="120" height="80" as="geometry" />
        </mxCell>
        <mxCell id="BGu-DRvQxac8sKk0P6TH-42" value="LRANGE" style="ellipse;whiteSpace=wrap;html=1;" vertex="1" parent="1">
          <mxGeometry x="440" y="830" width="120" height="80" as="geometry" />
        </mxCell>
        <mxCell id="BGu-DRvQxac8sKk0P6TH-45" value="LREM" style="ellipse;whiteSpace=wrap;html=1;" vertex="1" parent="1">
          <mxGeometry x="440" y="720" width="120" height="80" as="geometry" />
        </mxCell>
        <mxCell id="BGu-DRvQxac8sKk0P6TH-50" value="" style="edgeStyle=none;rounded=0;orthogonalLoop=1;jettySize=auto;html=1;" edge="1" parent="1" source="BGu-DRvQxac8sKk0P6TH-47" target="BGu-DRvQxac8sKk0P6TH-49">
          <mxGeometry relative="1" as="geometry" />
        </mxCell>
        <mxCell id="BGu-DRvQxac8sKk0P6TH-47" value="Capped lists" style="ellipse;whiteSpace=wrap;html=1;" vertex="1" parent="1">
          <mxGeometry x="440" y="960" width="120" height="80" as="geometry" />
        </mxCell>
        <mxCell id="BGu-DRvQxac8sKk0P6TH-49" value="LTRIM&lt;br&gt;RTRIM" style="ellipse;whiteSpace=wrap;html=1;" vertex="1" parent="1">
          <mxGeometry x="640" y="960" width="120" height="80" as="geometry" />
        </mxCell>
        <mxCell id="BGu-DRvQxac8sKk0P6TH-54" value="" style="edgeStyle=none;rounded=0;orthogonalLoop=1;jettySize=auto;html=1;" edge="1" parent="1" source="BGu-DRvQxac8sKk0P6TH-51" target="BGu-DRvQxac8sKk0P6TH-53">
          <mxGeometry relative="1" as="geometry" />
        </mxCell>
        <mxCell id="BGu-DRvQxac8sKk0P6TH-51" value="Blocking Ops" style="ellipse;whiteSpace=wrap;html=1;fillColor=#d5e8d4;strokeColor=#82b366;" vertex="1" parent="1">
          <mxGeometry x="440" y="1090" width="120" height="80" as="geometry" />
        </mxCell>
        <mxCell id="BGu-DRvQxac8sKk0P6TH-53" value="BRPOP&lt;br&gt;BLPOP" style="ellipse;whiteSpace=wrap;html=1;" vertex="1" parent="1">
          <mxGeometry x="640" y="1090" width="120" height="80" as="geometry" />
        </mxCell>
        <mxCell id="BGu-DRvQxac8sKk0P6TH-59" value="" style="edgeStyle=none;rounded=0;orthogonalLoop=1;jettySize=auto;html=1;" edge="1" parent="1" source="BGu-DRvQxac8sKk0P6TH-56" target="BGu-DRvQxac8sKk0P6TH-58">
          <mxGeometry relative="1" as="geometry" />
        </mxCell>
        <mxCell id="BGu-DRvQxac8sKk0P6TH-56" value="Safe queues&lt;br&gt;Rotating queues" style="ellipse;whiteSpace=wrap;html=1;" vertex="1" parent="1">
          <mxGeometry x="440" y="1210" width="120" height="80" as="geometry" />
        </mxCell>
        <mxCell id="BGu-DRvQxac8sKk0P6TH-58" value="LMOVE&lt;br&gt;LREM" style="ellipse;whiteSpace=wrap;html=1;" vertex="1" parent="1">
          <mxGeometry x="640" y="1210" width="120" height="80" as="geometry" />
        </mxCell>
        <mxCell id="BGu-DRvQxac8sKk0P6TH-62" value="" style="edgeStyle=none;rounded=0;orthogonalLoop=1;jettySize=auto;html=1;" edge="1" parent="1" source="BGu-DRvQxac8sKk0P6TH-60" target="BGu-DRvQxac8sKk0P6TH-61">
          <mxGeometry relative="1" as="geometry" />
        </mxCell>
        <mxCell id="BGu-DRvQxac8sKk0P6TH-65" value="" style="edgeStyle=none;rounded=0;orthogonalLoop=1;jettySize=auto;html=1;" edge="1" parent="1" source="BGu-DRvQxac8sKk0P6TH-60" target="BGu-DRvQxac8sKk0P6TH-64">
          <mxGeometry relative="1" as="geometry" />
        </mxCell>
        <mxCell id="BGu-DRvQxac8sKk0P6TH-60" value="Hash&lt;br&gt;No limits on #fields" style="ellipse;whiteSpace=wrap;html=1;align=center;" vertex="1" parent="1">
          <mxGeometry x="260" y="1350" width="120" height="80" as="geometry" />
        </mxCell>
        <mxCell id="BGu-DRvQxac8sKk0P6TH-61" value="HMSET&lt;br&gt;HGET&lt;br&gt;HMGET" style="ellipse;whiteSpace=wrap;html=1;align=center;" vertex="1" parent="1">
          <mxGeometry x="460" y="1350" width="120" height="80" as="geometry" />
        </mxCell>
        <mxCell id="BGu-DRvQxac8sKk0P6TH-64" value="HINCRBY" style="ellipse;whiteSpace=wrap;html=1;align=center;" vertex="1" parent="1">
          <mxGeometry x="460" y="1500" width="120" height="80" as="geometry" />
        </mxCell>
        <mxCell id="BGu-DRvQxac8sKk0P6TH-68" value="" style="edgeStyle=none;rounded=0;orthogonalLoop=1;jettySize=auto;html=1;" edge="1" parent="1" source="BGu-DRvQxac8sKk0P6TH-66" target="BGu-DRvQxac8sKk0P6TH-67">
          <mxGeometry relative="1" as="geometry" />
        </mxCell>
        <mxCell id="BGu-DRvQxac8sKk0P6TH-66" value="Set" style="ellipse;whiteSpace=wrap;html=1;align=center;" vertex="1" parent="1">
          <mxGeometry x="260" y="1650" width="120" height="80" as="geometry" />
        </mxCell>
        <mxCell id="BGu-DRvQxac8sKk0P6TH-67" value="SADD" style="ellipse;whiteSpace=wrap;html=1;align=center;" vertex="1" parent="1">
          <mxGeometry x="460" y="1650" width="120" height="80" as="geometry" />
        </mxCell>
      </root>
    </mxGraphModel>
  </diagram>
</mxfile>
